<svg width="28" height="28" viewBox="0 0 28 28" fill="none" xmlns="http://www.w3.org/2000/svg">
<path d="M19.5491 18.1146L22.4596 24.9713M19.5491 18.1146C22.5509 16.8404 23.9514 13.374 22.6772 10.3723L20.7936 6.6323L15.5675 8.85067L14.3858 9.35225M19.5491 18.1146C17.5519 18.9623 15.349 18.6261 13.723 17.4219M22.4596 24.9713L20.0347 26.0006M22.4596 24.9713L24.8845 23.9419M14.4016 6.41011L14.4016 3.13988M16.2184 6.41011L17.8535 4.22995M12.6756 6.41011L10.768 4.22995" stroke="white" stroke-width="0.6"/>
<path d="M8.34553 17.7514C5.34375 16.4772 3.94326 13.0109 5.21743 10.0091C5.21743 10.0091 7.50285 12.0646 10.8657 11.8143C14.2285 11.5641 16.0878 14.6233 16.0878 14.6233C14.8136 17.6251 11.3473 19.0256 8.34553 17.7514Z" fill="#828282"/>
<path d="M8.34584 17.7508L5.43534 24.6075M8.34584 17.7508C5.34406 16.4767 3.94357 13.0103 5.21774 10.0086L7.0177 6.2331L17.47 10.6698L16.0881 14.6228C14.814 17.6245 11.3476 19.025 8.34584 17.7508ZM5.43534 24.6075L3.0104 23.5782M5.43534 24.6075L7.86027 25.6369" stroke="white" stroke-width="0.6"/>
</svg>
