<svg width="28" height="28" viewBox="0 0 28 28" fill="none" xmlns="http://www.w3.org/2000/svg">
<path d="M20.8858 13.3766C23.2791 15.3105 25.9123 13.6561 25.9123 13.6561V27.4841H20.8858M20.8858 13.3766C18.6931 15.7271 17.8553 12.9599 16.6962 12.9599C16.0908 12.9599 15.7454 13.3112 15.4016 13.6561M20.8858 13.3766C20.8858 18.8859 20.8858 27.4841 20.8858 27.4841M20.8858 27.4841H2.33337V12.9599C2.87724 13.6941 3.42461 14.1139 3.94919 14.3132M3.94919 14.3132C5.36411 14.8509 5.3548 12.9599 6.72411 12.9599C7.82339 12.9599 8.26963 14.1269 9.1557 14.3132M3.94919 14.3132C2.45306 9.75488 1.40189 3.4288 4.75588 0.869665C7.42227 -1.16481 8.88402 4.96427 9.1557 8.91223M9.1557 8.91223C9.1557 8.91223 10.2808 6.25741 11.6692 6.11455V4.26926M9.1557 8.91223C9.1557 8.91223 9.1557 12.2465 9.1557 14.3132M9.1557 14.3132C10.0566 14.3409 10.4908 13.036 11.6692 12.9599C13.0096 12.8734 12.9239 14.3957 14.2646 14.3132C14.7741 14.2818 15.0872 13.9716 15.4016 13.6561M11.6692 4.26926H14.5418M11.6692 4.26926H11.0707V2.24541H15.1402V4.26926H14.5418M14.5418 4.26926V6.11455C15.1203 6.05502 16.3611 6.35265 16.6962 8.01935M16.6962 8.01935C18.0595 6.90035 19.7756 7.70189 20.5861 8.91223M16.6962 8.01935C15.246 9.20966 14.6835 11.2374 15.4016 13.6561M20.5861 8.91223C21.4638 8.21777 23.4467 7.51934 24.3563 10.2813C24.5359 11.048 24.7274 12.905 24.0571 14.1993M20.5861 8.91223C20.606 7.88046 21.1726 5.95978 23.2791 6.53122" stroke="white" stroke-width="0.6"/>
<path d="M25.9122 13.656V27.4839H20.8857V13.3765C23.279 15.3103 25.9122 13.656 25.9122 13.656Z" fill="#828282" stroke="white" stroke-width="0.6"/>
</svg>
