<svg width="28" height="28" viewBox="0 0 28 28" fill="none" xmlns="http://www.w3.org/2000/svg">
<path d="M0.466675 19.5838H5.49546V20.1854M0.466675 27.4597H5.49546V25.6548M5.49546 25.6548H16.7556V25.6548C18.3985 25.7812 19.5157 24.062 20.7521 22.9728L23.0164 20.978C23.6152 20.4505 24.2456 19.9132 24.5856 19.1912C24.6282 19.1005 24.6601 19.0174 24.6823 18.9411C25.1372 17.3779 22.0559 18.6376 20.7264 19.5771L17.4662 21.8809H11.4535C11.0162 21.5892 10.404 20.8418 11.4535 20.1854H15.2251C16.2636 20.1854 17.2475 18.4352 15.2251 18.2165H7.79121L5.49546 20.1854M5.49546 25.6548V20.1854M2.59844 14.8802H0.739978C0.739978 16.4553 1.97895 17.943 2.59844 18.2165H13.9679L25.6653 18.1071C27.4144 17.8654 27.5419 15.7093 27.4691 14.8802H25.7199M2.59844 14.8802C2.7442 11.161 5.16749 3.61333 13.6946 3.17578C13.8519 3.16967 14.0162 3.16757 14.1865 3.16987M2.59844 14.8802H25.7199M25.7199 14.8802C25.1334 5.57392 18.0779 3.22244 14.1865 3.16987M14.1865 3.16987V0.93335H12.9293H15.389M14.1865 5.09005C13.0933 4.85305 10.2837 5.02442 7.79121 7.60595M7.02596 8.26227C6.84376 8.40812 6.38096 8.87484 5.9874 9.57491M2.59844 23.6311C1.28659 23.6311 1.01328 25.6548 2.59844 25.6548C4.1836 25.6548 4.07428 23.6311 2.59844 23.6311Z" stroke="white" stroke-width="0.6"/>
<path d="M2.59831 23.6309C1.28645 23.6309 1.01315 25.6545 2.59831 25.6545C4.18347 25.6545 4.07415 23.6309 2.59831 23.6309Z" fill="white" stroke="white" stroke-width="0.6"/>
<path d="M7.79122 18.2164H13.9679L22.7683 18.1341L25.6653 18.107C27.4144 17.8654 27.542 15.7092 27.4691 14.8801H25.7199H2.59845H0.73999C0.73999 16.4553 1.97897 17.943 2.59845 18.2164H7.79122Z" fill="#828282"/>
<path d="M22.7683 18.1341L17.4662 21.8809M15.2251 18.2164H7.79122M0.73999 14.8801C0.73999 16.4553 1.97897 17.943 2.59845 18.2164H13.9679L25.6653 18.107C27.4144 17.8654 27.542 15.7092 27.4691 14.8801H25.7199H2.59845H0.73999Z" stroke="white" stroke-width="0.6"/>
</svg>
